HIERARCHY
ROOT Hips
{
  OFFSET 40.9192 92.6879 18.85
  CHANNELS 6 Xposition Yposition Zposition Zrotation Xrotation Yrotation
  JOINT LeftUpLeg
  {
    OFFSET 8.64259 1.95398 -2.38835
    CHANNELS 3 Zrotation Xrotation Yrotation
    JOINT LeftLeg
    {
      OFFSET 43.7702 0 0
      CHANNELS 3 Zrotation Xrotation Yrotation
      JOINT LeftFoot
      {
        OFFSET 40.6238 0 0
        CHANNELS 3 Zrotation Xrotation Yrotation
        JOINT LeftToeBase
        {
          OFFSET 12.7242 0 0
          CHANNELS 3 Zrotation Xrotation Yrotation
          End Site
          {
            OFFSET 0 0 0
          }
        }
      }
    }
  }
  JOINT RightUpLeg
  {
    OFFSET -8.2249 1.95398 -2.59336
    CHANNELS 3 Zrotation Xrotation Yrotation
    JOINT RightLeg
    {
      OFFSET 43.5653 0 0
      CHANNELS 3 Zrotation Xrotation Yrotation
      JOINT RightFoot
      {
        OFFSET 40.6238 0 0
        CHANNELS 3 Zrotation Xrotation Yrotation
        JOINT RightToeBase
        {
          OFFSET 12.7242 0 0
          CHANNELS 3 Zrotation Xrotation Yrotation
          End Site
          {
            OFFSET 0 0 0
          }
        }
      }
    }
  }
  JOINT Spine
  {
    OFFSET 0.165834 0.87714 6.61349
    CHANNELS 3 Zrotation Xrotation Yrotation
    JOINT Spine1
    {
      OFFSET 7.38963 1.71661e-005 0
      CHANNELS 3 Zrotation Xrotation Yrotation
      JOINT Spine2
      {
        OFFSET 11.9445 1.14441e-005 0
        CHANNELS 3 Zrotation Xrotation Yrotation
        JOINT Spine3
        {
          OFFSET 14.7254 4.19617e-005 0
          CHANNELS 3 Zrotation Xrotation Yrotation
          JOINT Spine4
          {
            OFFSET 10.9679 0 0
            CHANNELS 3 Zrotation Xrotation Yrotation
            JOINT RightShoulder
            {
              OFFSET 2.46616 -1.6653 3.69651
              CHANNELS 3 Zrotation Xrotation Yrotation
              JOINT RightArm
              {
                OFFSET 13.0012 0 0
                CHANNELS 3 Zrotation Xrotation Yrotation
                JOINT RightForeArm
                {
                  OFFSET 28.7848 1.52588e-005 0
                  CHANNELS 3 Zrotation Xrotation Yrotation
                  JOINT RightHand
                  {
                    OFFSET 26.5688 1.52588e-005 0
                    CHANNELS 3 Zrotation Xrotation Yrotation
                    End Site
                    {
                      OFFSET 0 0 0
                    }
                  }
                }
              }
            }
            JOINT LeftShoulder
            {
              OFFSET 2.38034 -1.29275 -3.7523
              CHANNELS 3 Zrotation Xrotation Yrotation
              JOINT LeftArm
              {
                OFFSET 16.3182 6.10351e-005 0
                CHANNELS 3 Zrotation Xrotation Yrotation
                JOINT LeftForeArm
                {
                  OFFSET 27.0901 0 0
                  CHANNELS 3 Zrotation Xrotation Yrotation
                  JOINT LeftHand
                  {
                    OFFSET 24.5451 1.52588e-005 0
                    CHANNELS 3 Zrotation Xrotation Yrotation
                    End Site
                    {
                      OFFSET 0 0 0
                    }
                  }
                }
              }
            }
            JOINT Neck
            {
              OFFSET 5.0226 -0.0266342 0
              CHANNELS 3 Zrotation Xrotation Yrotation
              JOINT Head
              {
                OFFSET 6.69363 2.86102e-005 0
                CHANNELS 3 Zrotation Xrotation Yrotation
                End Site
                {
                  OFFSET 0 0 0
                }
              }
            }
          }
        }
      }
    }
  }
}
MOTION
Frames:	15
Frame Time:	0.0416667
-23.752 81.3694 9.28353 -13.1353 -69.4809 -10.8159 -138.694 66.9226 84.3065 -36.0779 11.7502 -15.4433 54.6477 -3.32637 -3.555 26.1389 -3.5529 9.80744 167.546 57.9958 94.9218 -68.4548 -4.77367 0.257463 82.1089 -11.8727 -4.74268 39.4213 0.473763 -1.77856 0.454617 13.3772 -89.7442 0.116345 1.00103 0.545312 -11.5543 1.02406 0.500724 -34.0906 0.790859 0.820968 -14.078 0.790863 0.820954 87.7738 -25.0493 -113.514 18.6008 14.1968 -53.332 23.7055 29.3496 -45.7544 -14.2386 0.432928 -9.42396 -109.956 -36.3618 42.3299 5.01603 -19.7301 -50.3481 -16.4643 -34.6108 -27.2338 18.3046 -1.09468 -9.9118 16.4218 8.45095 8.1472 29.0327 7.53355 4.89899 
-17.5251 83.3131 15.4199 -15.9827 -64.9979 -10.8113 -128.891 69.4558 75.1157 -44.326 11.9768 -15.9745 60.7722 1.11953 2.45095 33.5893 3.41085 10.7077 172.779 55.0215 91.2432 -61.5821 -4.40177 -1.01972 78.7023 -10.9982 -4.71956 44.7597 0.463404 -4.44863 0.550544 13.0233 -89.6867 0.822774 1.2162 0.656069 -10.8477 1.24389 0.601896 -33.3847 0.962801 0.991266 -13.372 0.962799 0.991269 87.0404 -29.1584 -112.966 20.0701 14.8622 -51.6925 23.8019 30.9244 -47.6338 -13.4999 0.43978 -9.39293 -109.733 -35.9818 42.4309 -5.49097 -19.2523 -50.7371 -10.9655 -23.1144 -33.4192 16.2837 -0.188158 -4.96422 17.9845 9.59144 7.79801 29.2703 8.63127 4.96432 
-11.6578 84.5807 21.9152 -16.0839 -60.7026 -9.50403 -118.632 70.0092 63.7629 -51.7198 10.9525 -14.7039 65.4878 4.35462 1.63209 34.6174 4.37648 11.0193 177.975 51.895 86.8316 -54.902 -4.12684 -2.92426 74.9465 -9.96156 -4.62151 48.7351 0.072862 -8.38008 0.493062 12.5451 -89.3384 1.774 1.23843 1.32242 -9.89696 1.29543 1.26662 -32.4289 0.783788 1.63341 -12.4163 0.783789 1.63341 85.4357 -33.9351 -113.789 18.5668 16.3047 -46.505 26.1104 30.7466 -50.9005 -13.0711 0.605741 -11.9239 -108.977 -35.3815 43.2204 -0.724485 -13.8711 -49.7827 -14.3019 -22.7304 -34.2319 20.3189 -0.510422 -6.49902 17.8162 9.95633 3.36554 31.5011 11.0021 7.23087 
-5.3717 85.661 28.7594 -15.5103 -58.6097 -7.33368 -120.625 68.3951 63.2523 -54.7291 14.2838 -14.3014 67.7341 7.29893 6.06685 37.1289 6.73313 9.32845 -177.4 46.9042 83.0428 -49.0042 -3.5546 -5.4132 68.0964 -7.39409 -3.91303 50.9703 -0.288453 -10.7861 0.551438 12.2588 -89.272 2.34452 1.38441 1.44645 -9.32643 1.44672 1.38411 -31.8579 0.885765 1.79557 -11.8453 0.885768 1.79557 85.5786 -36.4148 -112.441 20.2003 17.9251 -38.6985 28.2277 28.8579 -58.7029 -11.8495 0.598315 -12.5361 -107.775 -35.3323 45.073 -3.45975 -7.48662 -51.1957 -14.9883 -17.7615 -40.2101 25.1559 -0.214641 -4.89001 18.9272 11.1689 3.29689 30.9868 12.6754 8.9854 
1.66 86.7272 35.1317 -17.4278 -59.1376 -5.4976 -129.882 65.6873 70.7564 -57.5649 12.7573 -12.9253 72.1314 10.5513 4.40871 37.5083 7.05511 8.23935 -172.826 41.7157 81.8269 -45.0624 -4.08558 -8.07426 54.3024 -2.5728 -1.47402 51.577 -0.526768 -11.8891 0.648294 11.9346 -89.4135 2.99452 1.52657 1.15986 -8.67601 1.57614 1.09153 -31.2112 1.10745 1.565 -11.1986 1.10746 1.565 85.0234 -40.0114 -111.947 15.0836 16.7541 -28.9421 33.8818 28.8846 -62.6847 -9.03706 0.532603 -15.4774 -105.254 -34.717 48.7267 -9.88999 0.724355 -48.0072 -11.8739 -10.5248 -49.6546 26.9435 0.138973 -3.44931 16.8168 12.6254 2.61598 30.948 14.7597 10.4148 
8.58518 87.2093 41.2776 -16.6055 -60.1779 -0.793457 -138.657 63.0901 76.4278 -59.5936 14.7304 -10.8128 71.7816 11.551 7.28115 40.1663 9.33245 6.47534 -167.551 39.6912 81.5069 -47.7393 -7.67343 -10.7368 44.0381 1.31398 1.54783 31.3117 0.844086 -16.9698 0.555255 11.4832 -89.7417 3.90429 1.21336 0.502788 -7.76617 1.23432 0.448878 -30.3039 1.00616 0.844235 -10.2912 1.00616 0.844216 85.7342 -41.937 -110.015 11.9915 14.4635 -17.4639 38.8428 26.4071 -68.4553 -6.74963 0.37851 -16.3722 -102.837 -33.9721 52.2601 -13.601 10.5177 -42.6684 -9.10692 -5.78181 -61.3582 30.1972 1.70919 1.78516 15.1269 13.893 0.338273 31.659 16.5318 10.1337 
14.9373 87.3349 47.7095 -12.5623 -61.6508 5.07881 -146.73 57.9831 80.5994 -60.1346 16.0552 -9.12607 70.891 11.578 7.95603 42.6181 11.4285 6.07874 -164.449 40.3917 81.748 -56.3429 -14.7774 -12.0342 41.8832 3.39546 3.32845 27.0771 0.468492 -6.67992 0.229341 11.0801 -89.9669 4.71367 0.471881 0.0587015 -6.95718 0.474009 0.0378473 -29.493 0.432421 0.197787 -9.48031 0.432428 0.197795 87.495 -44.6912 -106.194 8.84529 12.496 -7.57409 41.063 23.3924 -72.3597 -1.89249 -0.0962899 -18.8035 -100.747 -32.7323 55.0998 -13.0278 21.5063 -38.392 -5.14464 -3.54422 -71.4742 33.4018 2.22792 2.80588 16.2114 15.4038 -7.0065 27.1087 20.7302 14.9751 
21.2239 87.4328 53.9999 -9.08474 -63.3677 9.94727 -152.318 50.9789 83.5766 -58.6389 14.5272 -8.59982 70.1382 10.5803 5.50343 45.9147 14.2531 6.00185 -166.378 42.9555 84.3906 -61.938 -13.4271 -9.69637 45.9238 2.44293 2.26674 31.3574 0.390261 -6.10042 -0.139641 10.7477 -90.1689 5.37753 -0.349089 -0.324152 -6.29341 -0.363011 -0.308487 -28.8283 -0.235523 -0.414078 -8.81569 -0.235526 -0.41408 89.5216 -43.193 -103.324 9.19715 10.8856 1.2151 41.9309 20.6032 -76.2576 2.2792 -0.63359 -20.8574 -98.8227 -31.2127 57.6301 -11.2887 32.8002 -35.4036 -2.37532 -5.36143 -81.5983 31.6794 2.61634 4.46796 15.636 16.3568 -9.765 24.0158 22.1473 16.1579 
28.0378 88.3496 60.2776 -6.69912 -64.9176 13.8874 -156.833 42.2476 86.2 -52.6582 13.2507 -8.92041 66.9322 7.67391 2.79899 47.2467 15.5848 7.07164 -171.366 46.1414 89.1421 -63.872 -13.8332 -6.78068 51.2654 1.2742 1.11117 34.0274 0.397949 -8.02316 -0.537577 10.4937 -90.3636 5.88292 -1.22653 -0.67961 -5.78761 -1.25526 -0.624965 -28.3245 -0.965588 -1.01682 -8.31187 -0.965594 -1.01683 92.0336 -40.1939 -99.8357 11.487 8.88136 6.11292 40.5524 17.6851 -78.9038 5.91424 -0.73604 -18.1364 -97.9955 -30.3624 58.6561 -11.2704 41.7565 -30.8373 -3.31519 -7.92376 -89.3836 27.341 1.94198 3.28275 14.3862 18.1402 -11.3525 21.4566 24.0631 17.562 
34.9814 89.6396 66.7779 -5.17604 -68.149 15.0682 -160.813 30.4944 87.6148 -42.693 14.5553 -9.4252 58.0252 0.223181 0.182676 50.1128 18.1749 7.48743 -176.141 47.435 94.2177 -63.3525 -18.0408 -4.70183 53.7787 1.19496 0.992463 39.9209 0.277663 -8.45131 -0.883445 10.4869 -90.2987 5.89512 -1.8903 -0.533509 -5.77452 -1.91195 -0.449798 -28.3176 -1.64255 -1.07709 -8.30496 -1.64255 -1.0771 92.9138 -38.993 -98.5819 11.3161 6.12284 10.1801 40.2602 15.6721 -79.9151 11.0931 -1.30444 -18.7445 -97.6101 -30.0608 59.1933 -8.66739 48.6093 -29.8295 -8.06186 -9.76153 -92.9491 23.104 1.00242 0.462074 12.1459 19.7151 -13.0733 19.8439 26.0808 20.3403 
41.2633 91.0087 73.3071 1.76543 -70.1792 19.4127 -164.984 18.8035 86.0911 -30.1532 14.4984 -7.86045 42.1495 -10.275 -11.5187 46.5438 14.5996 4.81635 178.251 48.2783 98.2702 -60.1273 -20.0398 -1.95473 58.0133 -0.0187488 0.128494 44.3211 0.0603012 -9.98364 -1.36753 10.481 -90.15 5.90892 -2.79505 -0.215074 -5.75902 -2.8018 -0.091776 -28.3157 -2.60111 -1.04572 -8.30305 -2.6011 -1.04571 93.0266 -37.5109 -98.7265 13.0653 3.31216 14.8726 38.8288 13.0265 -81.9479 13.0949 -1.42652 -18.4035 -97.6186 -31.1597 59.7428 -2.396 52.9531 -32.8363 -12.0369 -11.35 -94.6795 12.7501 0.123677 -2.9057 9.86421 20.9013 -11.7904 19.6094 26.7515 20.5198 
47.407 92.4341 79.9287 7.05465 -70.7126 22.9698 -168.222 11.3469 84.9144 -21.6935 19.6989 -5.95844 30.2902 -16.1403 -17.216 36.1808 5.85181 9.20818 172.381 47.4178 102.53 -50.3909 -23.3196 2.21519 58.6028 -0.252741 0.094764 50.3492 -0.431458 -12.0652 -1.75354 10.3153 -90.015 6.24431 -3.50933 0.0865688 -5.42192 -3.50212 0.241117 -27.9931 -3.37292 -0.973369 -7.98043 -3.37292 -0.973365 92.8837 -38.844 -98.6725 13.9094 -0.0453809 18.1686 38.4082 10.2157 -83.7683 16.8121 -1.68682 -17.9221 -97.6858 -31.9847 60.0383 -2.88029 54.0223 -30.2223 -14.4803 -11.912 -93.9001 -2.18183 -0.0718436 -7.97596 7.32366 21.7878 -12.6078 19.0662 27.8219 22.379 
53.7569 93.4292 86.7571 11.2319 -70.8581 27.9569 -168.453 12.5831 86.586 -32.075 14.6877 -5.21195 38.341 -11.5981 -12.2749 32.1158 1.83051 13.5149 169.423 43.9023 105.848 -36.8707 -24.2556 7.45858 56.4122 0.31423 0.5952 53.7752 -0.0777875 -8.56424 -1.98664 10.2232 -90.1212 6.42603 -4.01986 -0.095916 -5.23869 -4.02019 0.0813772 -27.82 -3.80492 -1.30138 -7.80729 -3.80492 -1.30138 92.9361 -41.4926 -97.9842 14.0374 -5.16093 19.4969 37.9597 8.11339 -85.0214 19.2266 -1.72987 -17.1349 -98.1188 -32.695 59.6303 -7.99345 52.8109 -22.9884 -13.327 -11.6798 -92.366 -13.1687 0.639538 -11.8917 6.58094 22.7795 -14.5078 17.464 29.122 24.5617 
59.5088 93.8653 93.3039 16.9631 -71.0366 35.1795 -167.969 18.6088 89.9985 -48.5544 12.8123 -3.81016 47.2632 -6.62467 -4.94571 36.378 6.0856 14.9513 171.09 39.9077 107.619 -28.7428 -20.3377 7.94175 54.019 1.55474 1.42315 52.1271 0.0897615 -7.69648 -2.05908 10.2922 -90.26 6.28231 -4.22331 -0.369973 -5.38177 -4.2355 -0.183415 -27.9657 -3.91657 -1.62406 -7.95303 -3.91658 -1.62405 92.9272 -43.0605 -97.6648 16.8545 -8.90889 19.8254 40.4964 8.9315 -84.077 19.8617 -1.78928 -17.1151 -97.2438 -33.9274 61.7471 -8.5984 49.4445 -20.6248 -15.752 -11.0733 -91.4868 -8.35948 0.52645 -16.1266 7.23931 22.9039 -15.3134 16.9124 29.3175 24.5302 
65.0268 93.9518 99.4326 26.8875 -71.763 43.7255 -167.395 24.2785 91.815 -61.004 10.7966 -2.5155 54.7547 -1.37425 -0.182254 40.3788 10.1287 14.7656 174.738 35.1534 105.436 -30.3298 -12.4296 4.49081 57.6152 0.291229 0.380011 38.2724 0.451967 -2.92803 -1.96405 10.3925 -90.12 6.0866 -3.97427 -0.112778 -5.57826 -3.97539 0.0625001 -28.1584 -3.75637 -1.3037 -8.14573 -3.75636 -1.30371 93.1093 -47.1706 -96.5568 17.2296 -11.6742 20.6173 43.064 10.736 -80.5314 20.4802 -1.86493 -17.1672 -97.7081 -36.0689 61.9338 -9.88803 43.6914 -16.9055 -14.7871 -10.1914 -90.7247 -6.02936 0.200244 -12.7096 5.6398 21.3076 -14.6314 19.324 27.5578 22.0811 
